<?xml version="1.0" encoding="UTF-8"?><svg xmlns="http://www.w3.org/2000/svg" xmlns:xlink="http://www.w3.org/1999/xlink" height="44.2" preserveAspectRatio="xMidYMid meet" version="1.0" viewBox="0.0 0.0 117.7 44.2" width="117.7" zoomAndPan="magnify"><g id="change1_1"><path d="M64.439,14.628l7.422-5.302h-9.192c-0.431,0-0.814-0.277-0.95-0.686L58.864,0l-2.855,8.64 c-0.136,0.409-0.519,0.686-0.95,0.686h-9.192l7.422,5.302c0.356,0.254,0.505,0.711,0.368,1.127l-2.844,8.605l7.47-5.335 c0.174-0.125,0.377-0.187,0.581-0.187s0.407,0.062,0.581,0.187l7.47,5.335l-2.844-8.605C63.934,15.34,64.083,14.883,64.439,14.628z" fill="inherit"/><path d="M82.559,22.287h-7.965l6.424,4.561c0.358,0.254,0.509,0.714,0.37,1.131l-2.466,7.416l6.067-4.308v-13.94l-1.481,4.455 C83.372,22.011,82.99,22.287,82.559,22.287z" fill="inherit"/><path d="M90.96,26.848l6.424-4.561h-7.965c-0.431,0-0.813-0.276-0.949-0.685l-1.481-4.455v13.94l6.067,4.308l-2.466-7.416 C90.452,27.562,90.602,27.102,90.96,26.848z" fill="inherit"/><path d="M113.031,37.665l4.697-3.334h-5.831c-0.431,0-0.813-0.276-0.949-0.685l-1.822-5.479l-1.822,5.479 c-0.136,0.409-0.518,0.685-0.949,0.685h-5.831l4.697,3.334c0.358,0.254,0.509,0.714,0.37,1.131l-1.807,5.433l4.762-3.381 c0.173-0.123,0.376-0.185,0.579-0.185s0.406,0.062,0.579,0.185l4.762,3.381l-1.806-5.433 C112.522,38.378,112.673,37.919,113.031,37.665z" fill="inherit"/><path d="M36.71,26.848l6.424-4.561h-7.965c-0.431,0-0.813-0.276-0.949-0.685l-2.481-7.462l-2.481,7.462 c-0.136,0.409-0.518,0.685-0.949,0.685h-7.965l6.424,4.561c0.358,0.254,0.509,0.714,0.37,1.131l-2.466,7.416l6.488-4.606 c0.173-0.123,0.376-0.185,0.579-0.185s0.406,0.062,0.579,0.185l6.488,4.606l-2.466-7.416C36.202,27.562,36.352,27.102,36.71,26.848 z" fill="inherit"/><path d="M12.506,37.665l4.697-3.334h-5.831c-0.431,0-0.813-0.276-0.949-0.685l-1.822-5.479L6.78,33.646 c-0.136,0.409-0.518,0.685-0.949,0.685H0l4.697,3.334c0.358,0.254,0.509,0.713,0.37,1.131l-1.806,5.433l4.762-3.381 c0.347-0.246,0.812-0.246,1.158,0l4.762,3.381l-1.807-5.433C11.997,38.378,12.147,37.919,12.506,37.665z" fill="inherit"/></g></svg>